# xmcd
#
# Track frame offsets:
#  150
#  21758
#  67031
#  94198
#  123178
#  166465
#  189838
#  220847
#  242198
#
# Disc length: 3818 seconds
#
# Revision: 0
# Processed by: cddbd v1.5.1PL2 Copyright (c) Steve Scherf et al.
# Submitted via: Collectorz.com_Music_Collector 6.9
#
DISCID=770ee809
DTITLE=Bloodrock - Live
DYEAR=1998
DGENRE=
TTITLE0=01 - Track 1
TTITLE1=02 - Track 2
TTITLE2=03 - Track 3
TTITLE3=04 - Track 4
TTITLE4=05 - Track 5
TTITLE5=06 - Track 6
TTITLE6=07 - Track 7
TTITLE7=08 - Track 8
TTITLE8=09 - Track 9
EXTD=
EXTT0=
EXTT1=
EXTT2=
EXTT3=
EXTT4=
EXTT5=
EXTT6=
EXTT7=
EXTT8=
PLAYORDER=
